<svg id="Слой_1" xmlns="http://www.w3.org/2000/svg" viewBox="0 0 347 347"><style>.red{fill:#cf0000}.black{fill:#777}</style><switch><g><path class="black" d="M15.7 11.6h167.7v81h81v104.1H276V84.4L191.6 0H4.1v347h167.7v-11.6H15.7V11.6zM195 19.7L256.2 81H195V19.7zm0 0"/><path class="black" d="M337.8 216.6l-16.5-16.5c-6.5-6.5-17.9-6.5-24.4 0l-89 89-12.3 45-3 3c-2.3 2.3-2.3 5.9-.1 8.1v.1h.1c1.1 1.1 2.6 1.7 4 1.7 1.5 0 3-.6 4.1-1.7l3-3 45-12.3 89-89c3.3-3.2 5.1-7.6 5.1-12.2.1-4.6-1.8-8.9-5-12.2zm-116.6 75.5l59.3-59.2 24.5 24.5-59.2 59.2-24.6-24.5zm-5.2 11.2l18.6 18.6-25.6 7 7-25.6zm113.6-70.4l-16.4 16.4-24.5-24.5 16.4-16.4c2.1-2.2 5.9-2.2 8 0l16.5 16.5c1.1 1.1 1.7 2.5 1.7 4 0 1.4-.6 2.9-1.7 4zm0 0"/><g><path class="red" d="M112.8 160.5c-.9-1.1-2.2-1.9-3.8-2.6s-3.6-1-6.2-1h-3.1v24.6h5.2c3.6 0 6.2-1.1 7.8-3.4 1.6-2.3 2.4-5.6 2.4-10 0-1.4-.2-2.7-.5-4-.2-1.3-.8-2.5-1.8-3.6zM82.1 159.2c-.5-.6-1.1-1.2-1.9-1.6-.8-.4-1.9-.6-3.3-.6h-4v12.9h4.8c.6 0 1.3-.1 1.9-.3.6-.2 1.2-.6 1.7-1.1.5-.5 1-1.2 1.3-2.1.3-.9.5-2 .5-3.3 0-.5-.1-1.1-.2-1.8-.1-.8-.4-1.5-.8-2.1z"/><path class="red" d="M32.5 137.2v63.9h151.4v-63.9H32.5zm55 30.3c-.6 1.3-1.3 2.5-2.3 3.4-1 .9-2.2 1.6-3.6 2.1s-3 .7-4.7.7H73v11.7h-5.3v-32.5H77c1.4 0 2.7.2 4.1.7 1.4.4 2.6 1.1 3.6 2 1.1.9 1.9 1.9 2.6 3.2.7 1.3 1 2.7 1 4.2 0 1.6-.3 3.1-.8 4.5zm32.4 7.6c-.6 1.9-1.3 3.5-2.2 4.8-.9 1.3-1.9 2.3-3 3-1.1.7-2.2 1.3-3.2 1.7-1 .4-2 .6-2.8.7-.9.1-1.5.2-1.9.2H94.5V153h9.8c2.7 0 5.1.4 7.2 1.3 2.1.9 3.8 2 5.2 3.5 1.4 1.4 2.4 3.1 3.1 4.9.7 1.8 1 3.7 1 5.7-.1 2.5-.3 4.8-.9 6.7zm28.8-18.2h-14.9v10.2h13.6v3.6h-13.6v14.6h-5.4v-32.5h20.3v4.1z"/></g></g></switch></svg>